<?xml version="1.0" encoding="utf-8"?>
<!-- Generator: Adobe Illustrator 20.1.0, SVG Export Plug-In . SVG Version: 6.00 Build 0)  -->
<svg version="1.1" id="Layer_1" xmlns="http://www.w3.org/2000/svg" xmlns:xlink="http://www.w3.org/1999/xlink" x="0px" y="0px"
	 viewBox="0 0 98 32" style="enable-background:new 0 0 98 32;" xml:space="preserve">
<style type="text/css">
	.st0{fill:#FFFFFF;}
</style>
<g>
	<path class="st0" d="M3.2,27.9C3,27.8,3,27.7,3,27.3c0-0.7,0.1-1.2,0.1-1.5c0-0.2,0-0.2,0.1-0.2c0.1,0,0.1,0,0.1,0.2
		c0,0.1,0,0.3,0,0.5c0.2,1,1.1,1.4,2,1.4c1.3,0,2-0.9,2-1.8c0-0.9-0.4-1.5-1.6-2.5l-0.6-0.5c-1.5-1.2-1.8-2-1.8-3
		c0-1.5,1.1-2.5,2.8-2.5c0.5,0,0.9,0.1,1.3,0.1c0.3,0.1,0.4,0.1,0.5,0.1c0.1,0,0.1,0,0.1,0.1c0,0.1-0.1,0.5-0.1,1.5
		c0,0.2,0,0.3-0.1,0.3c-0.1,0-0.1-0.1-0.1-0.2c0-0.2-0.1-0.5-0.2-0.7C7.5,18.6,7.2,18,5.9,18c-0.9,0-1.7,0.6-1.7,1.6
		c0,0.8,0.4,1.3,1.7,2.3l0.4,0.3c1.6,1.3,2,2.1,2,3.2c0,0.6-0.2,1.6-1.2,2.3c-0.6,0.4-1.3,0.6-2.1,0.6C4.4,28.2,3.8,28.1,3.2,27.9"
		/>
	<path class="st0" d="M12.7,24.1c0,1.3,0,2.4,0.1,3c0,0.4,0.1,0.7,0.5,0.8c0.2,0,0.5,0.1,0.6,0.1c0.1,0,0.1,0,0.1,0.1
		C14,28,14,28,13.8,28c-0.8,0-1.6,0-1.7,0c-0.1,0-0.9,0-1.3,0c-0.2,0-0.2,0-0.2-0.1c0,0,0-0.1,0.1-0.1c0.1,0,0.3,0,0.4-0.1
		c0.3-0.1,0.3-0.4,0.4-0.8c0.1-0.6,0.1-1.7,0.1-3v-2.4c0-2.1,0-2.5,0-3c0-0.5-0.2-0.7-0.5-0.8c-0.2,0-0.3-0.1-0.4-0.1
		c-0.1,0-0.1,0-0.1-0.1c0-0.1,0.1-0.1,0.2-0.1c0.5,0,1.3,0,1.4,0c0.1,0,0.9,0,1.3,0c0.2,0,0.2,0,0.2,0.1c0,0.1-0.1,0.1-0.1,0.1
		c-0.1,0-0.2,0-0.3,0c-0.4,0.1-0.5,0.3-0.5,0.8c0,0.4,0,0.8,0,3V24.1z"/>
	<path class="st0" d="M18.3,24.1c0,2,0.1,2.9,0.3,3.1c0.2,0.2,0.6,0.3,1.6,0.3c0.7,0,1.3,0,1.7-0.4c0.2-0.2,0.3-0.6,0.4-0.8
		c0-0.1,0-0.2,0.1-0.2c0.1,0,0.1,0.1,0.1,0.2c0,0.2-0.1,1-0.2,1.4c-0.1,0.3-0.1,0.4-0.9,0.4c-1,0-1.7,0-2.3,0c-0.6,0-1,0-1.4,0
		c-0.1,0-0.3,0-0.6,0c-0.3,0-0.6,0-0.8,0c-0.2,0-0.2,0-0.2-0.1c0,0,0-0.1,0.1-0.1c0.1,0,0.3,0,0.4-0.1c0.3-0.1,0.3-0.4,0.4-0.8
		c0.1-0.6,0.1-1.7,0.1-3v-2.4c0-2.1,0-2.5,0-3c0-0.5-0.1-0.7-0.6-0.8c-0.1,0-0.3,0-0.5,0c-0.1,0-0.1,0-0.1-0.1
		c0-0.1,0.1-0.1,0.2-0.1c0.6,0,1.5,0,1.5,0c0.1,0,1.1,0,1.5,0c0.2,0,0.2,0,0.2,0.1c0,0.1-0.1,0.1-0.1,0.1c-0.1,0-0.3,0-0.5,0
		c-0.4,0.1-0.5,0.3-0.5,0.8c0,0.4,0,0.8,0,3V24.1z"/>
	<path class="st0" d="M27.3,26.4c0.8-1.8,2.6-6.6,2.9-7.6c0.1-0.2,0.1-0.4,0.1-0.5c0-0.1,0-0.2-0.2-0.3c-0.2-0.1-0.4-0.1-0.5-0.1
		c-0.1,0-0.2,0-0.2-0.1c0-0.1,0.1-0.1,0.3-0.1c0.5,0,1.2,0,1.3,0c0.1,0,0.7,0,1.1,0c0.1,0,0.2,0,0.2,0.1c0,0.1-0.1,0.1-0.2,0.1
		c-0.1,0-0.4,0-0.7,0.2c-0.2,0.1-0.4,0.4-0.8,1.3c-0.2,0.4-0.8,2-1.5,3.7c-0.8,2-1.5,3.5-1.8,4.1c-0.4,0.8-0.4,1-0.6,1
		c-0.2,0-0.2-0.2-0.5-0.8L23.2,19c-0.3-0.8-0.5-0.9-1-1.1c-0.2-0.1-0.4-0.1-0.5-0.1c-0.1,0-0.1,0-0.1-0.1c0-0.1,0.1-0.1,0.4-0.1
		c0.7,0,1.4,0,1.6,0c0.1,0,0.8,0,1.3,0c0.2,0,0.4,0,0.4,0.1c0,0.1,0,0.1-0.1,0.1c-0.2,0-0.4,0-0.5,0.1c-0.2,0.1-0.2,0.2-0.2,0.3
		c0,0.2,0.2,0.6,0.4,1.1L27.3,26.4z"/>
	<path class="st0" d="M34.5,21.7c0-2.1,0-2.5,0-3c0-0.5-0.1-0.7-0.6-0.8c-0.1,0-0.3,0-0.5,0c-0.1,0-0.1,0-0.1-0.1
		c0-0.1,0.1-0.1,0.2-0.1c0.3,0,0.7,0,1,0l0.6,0c0.1,0,2.8,0,3.1,0c0.3,0,0.5,0,0.6-0.1c0.1,0,0.1-0.1,0.2-0.1c0,0,0.1,0.1,0.1,0.1
		c0,0.1-0.1,0.3-0.1,0.6c0,0.1,0,0.7-0.1,0.9c0,0.1,0,0.2-0.1,0.2c-0.1,0-0.1-0.1-0.1-0.2c0-0.1,0-0.3-0.1-0.5
		c-0.1-0.2-0.2-0.4-1-0.5c-0.2,0-1.7,0-1.9,0c-0.1,0-0.1,0-0.1,0.1v3.8c0,0.1,0,0.1,0.1,0.1c0.2,0,1.9,0,2.2,0
		c0.3,0,0.5-0.1,0.6-0.2c0.1-0.1,0.2-0.2,0.2-0.2c0,0,0.1,0,0.1,0.1c0,0.1-0.1,0.3-0.1,0.8c0,0.3-0.1,0.8-0.1,0.9
		c0,0.1,0,0.3-0.1,0.3c-0.1,0-0.1-0.1-0.1-0.1c0-0.1,0-0.3-0.1-0.5c-0.1-0.2-0.2-0.4-0.7-0.5c-0.4,0-1.7-0.1-2-0.1
		c-0.1,0-0.1,0-0.1,0.1v1.2c0,0.5,0,2.1,0,2.3c0,0.9,0.2,1.1,1.6,1.1c0.4,0,1,0,1.3-0.2c0.4-0.2,0.5-0.4,0.6-1
		c0-0.2,0.1-0.2,0.1-0.2c0.1,0,0.1,0.1,0.1,0.2c0,0.1-0.1,1-0.2,1.3c-0.1,0.4-0.2,0.4-0.7,0.4c-1,0-1.8,0-2.3,0c-0.5,0-0.9,0-1.1,0
		c0,0-0.3,0-0.5,0c-0.3,0-0.6,0-0.8,0c-0.2,0-0.2,0-0.2-0.1c0,0,0-0.1,0.1-0.1c0.1,0,0.3,0,0.4-0.1c0.3-0.1,0.3-0.4,0.4-0.8
		c0.1-0.6,0.1-1.7,0.1-3V21.7z"/>
	<path class="st0" d="M56.2,17.5c3.1,0,5.4,1.9,5.4,5.1c0,3.1-2.2,5.6-5.5,5.6c-3.8,0-5.3-2.9-5.3-5.4
		C50.8,20.6,52.4,17.5,56.2,17.5 M56.5,27.7c1.2,0,3.8-0.7,3.8-4.7c0-3.3-2-5.1-4.2-5.1c-2.3,0-4,1.5-4,4.5
		C52.1,25.7,54,27.7,56.5,27.7"/>
	<path class="st0" d="M72.8,26.2L72.8,26.2c0.4-1.3,1.7-5.2,2.2-7c0.1-0.5,0.1-0.7,0.1-0.9c0-0.2-0.1-0.4-0.8-0.4
		c-0.1,0-0.1,0-0.1-0.1c0-0.1,0.1-0.1,0.2-0.1c0.7,0,1.3,0,1.4,0c0.1,0,0.7,0,1.1,0c0.1,0,0.2,0,0.2,0.1c0,0.1,0,0.1-0.1,0.1
		c-0.1,0-0.3,0-0.5,0.1c-0.4,0.2-0.6,0.7-0.9,1.5c-0.6,1.7-2,6.1-2.5,7.6c-0.4,1-0.4,1.2-0.6,1.2c-0.1,0-0.2-0.2-0.4-0.7l-2.7-7.6h0
		c-0.5,1.3-2.4,6.3-2.9,7.6c-0.2,0.6-0.3,0.7-0.5,0.7c-0.1,0-0.2-0.2-0.5-1.1L63.2,19c-0.2-0.7-0.4-0.9-0.8-1.1
		c-0.2-0.1-0.5-0.1-0.6-0.1c-0.1,0-0.1,0-0.1-0.1c0-0.1,0.1-0.1,0.2-0.1c0.7,0,1.5,0,1.6,0c0.1,0,0.7,0,1.4,0c0.2,0,0.2,0,0.2,0.1
		c0,0.1-0.1,0.1-0.1,0.1c-0.1,0-0.4,0-0.5,0.1c-0.1,0-0.2,0.2-0.2,0.3c0,0.2,0.1,0.7,0.3,1.3c0.2,0.9,1.6,5.9,1.8,6.6h0l2.9-7.8
		c0.2-0.6,0.3-0.6,0.3-0.6c0.1,0,0.2,0.2,0.3,0.6L72.8,26.2z"/>
	<path class="st0" d="M56.5,30.4c0,0-6.2-0.2-10.2-7c1.2-1.1,1.7-2.1,1.7-3.2c0-0.9-0.6-1.6-0.9-1.9c-0.7-0.5-1.6-0.6-2.5-0.6
		c-0.4,0-1.5,0-1.6,0c-0.1,0-0.9,0-1.5,0c-0.2,0-0.2,0-0.2,0.1c0,0.1,0.1,0.1,0.1,0.1c0.1,0,0.4,0,0.5,0c0.5,0.1,0.6,0.3,0.6,0.8
		c0,0.4,0,0.8,0,3v2.4c0,1.3,0,2.4-0.1,3c-0.1,0.4-0.1,0.7-0.4,0.8c-0.1,0-0.3,0.1-0.4,0.1c-0.1,0-0.1,0-0.1,0.1
		c0,0.1,0.1,0.1,0.2,0.1c0.4,0,1.3,0,1.3,0c0.1,0,0.9,0,1.7,0c0.2,0,0.2,0,0.2-0.1c0,0,0-0.1-0.1-0.1c-0.1,0-0.4,0-0.6-0.1
		c-0.4-0.1-0.5-0.4-0.5-0.8c-0.1-0.6-0.1-1.7-0.1-3v-0.3c0-0.1,0-0.1,0.1-0.1l1.7,0c0.1,0,0.1,0,0.2,0.1c0.3,0.4,0.9,1.3,1.5,2
		C51.6,31.3,56.5,30.4,56.5,30.4 M46,23c-0.3,0.2-0.7,0.3-1,0.3c-0.6,0-1.2-0.1-1.4-0.2c-0.1,0-0.1-0.1-0.1-0.2v-4.5
		c0-0.1,0-0.1,0.1-0.2c0.1,0,0.5-0.1,0.9-0.1c1.5,0,2.4,1,2.4,2.7C46.9,21.9,46.5,22.7,46,23"/>
	<path class="st0" d="M81.6,17.5c0,0,2.1,4.6,1.3,7.4C82.9,24.8,80.9,22.7,81.6,17.5"/>
	<path class="st0" d="M84.2,4L84.2,4C84.2,4,84.2,3.9,84.2,4C84.1,3.6,84,3.9,84,3.9c0,0.4,0,0.7,0,0.9c-0.3,3.6-3.2,6.6-4.3,7.5
		l0,0l-0.4,0.3c0,0-0.1,0.2,0.6-0.2c0.1-0.1,0.3-0.1,0.4-0.2C86.3,9.2,84.2,4,84.2,4"/>
	<path class="st0" d="M83.6,21.4c-0.1-1.8-0.7-5.5-4.4-8.5c-0.2-0.1-0.4-0.3-0.5-0.4c3.3-2.6,3.9-5.3,3.8-7.3c0-0.1,0-0.2,0-0.3
		c0,0,0,0,0,0c-0.1-0.7-0.2-1.4-0.5-2.1C81.7,2.3,81.5,2,81.5,2c0,0,0,0,0,0c-0.1-0.2-0.2-0.1-0.2-0.1c0,0,0,0.1,0,0.1
		c0,0.1,0,0.2,0.1,0.3c0.8,4.2-1.8,8.4-3.1,10.2c-0.3-0.2-0.5-0.3-0.8-0.4c-4.2-2.2-5.5-0.5-5.7-0.2c-1.3,0.6-2.2,1.4-2.2,1.4
		s1.7-0.6,3.3-0.6c0,0,8.6-0.6,10.3,8.5c0,0.3,0.2,1.3,0.2,1.4c0,0.2,0.1,0.1,0.1,0C83.6,22.4,83.6,21.9,83.6,21.4"/>
	<path class="st0" d="M83.2,16.6c-1.6,0-5.3-0.4-7.7-2.5c-0.5-0.5-0.7-0.8-0.7-0.8c0,0,0,0,0,0.1c0,0,0,0,0,0c0,0,0,0.1,0.1,0.2
		c0,0,0,0,0,0.1c0.1,0.2,0.2,0.4,0.4,0.7c0.1,0.1,0.1,0.2,0.1,0.2l0,0c1,1.4,3.3,3.5,7.5,2.5c0.2,0,1.3-0.2,1.2-0.3
		C84.1,16.5,83.8,16.6,83.2,16.6"/>
</g>
</svg>
